<?xml version="1.0" encoding="UTF-8" standalone="no"?><!DOCTYPE svg PUBLIC "-//W3C//DTD SVG 1.1//EN" "http://www.w3.org/Graphics/SVG/1.1/DTD/svg11.dtd"><!-- Generated by graphviz version 2.40.1 (20161225.0304)
 --><!-- Title: %0 Pages: 1 --><svg xmlns="http://www.w3.org/2000/svg" xmlns:xlink="http://www.w3.org/1999/xlink" width="1853pt" height="836pt" viewBox="0.00 0.00 1852.66 836.00">
<g id="graph0" class="graph" transform="scale(1 1) rotate(0) translate(4 832)">
<title>%0</title>
<polygon fill="#ffffff" stroke="transparent" points="-4,4 -4,-832 1848.6603,-832 1848.6603,4 -4,4"/>
<!-- [root] aws_autoscaling_group.ASG (expand) -->
<g id="node1" class="node">
<title>[root] aws_autoscaling_group.ASG (expand)</title>
<polygon fill="none" stroke="#000000" points="1056.6827,-684 877.3173,-684 877.3173,-648 1056.6827,-648 1056.6827,-684"/>
<text text-anchor="middle" x="967" y="-661.8" font-family="Times,serif" font-size="14.00" fill="#000000">aws_autoscaling_group.ASG</text>
</g>
<!-- [root] aws_launch_template.LT (expand) -->
<g id="node5" class="node">
<title>[root] aws_launch_template.LT (expand)</title>
<polygon fill="none" stroke="#000000" points="1045.897,-612 888.103,-612 888.103,-576 1045.897,-576 1045.897,-612"/>
<text text-anchor="middle" x="967" y="-589.8" font-family="Times,serif" font-size="14.00" fill="#000000">aws_launch_template.LT</text>
</g>
<!-- [root] aws_autoscaling_group.ASG (expand)&#45;&gt;[root] aws_launch_template.LT (expand) -->
<g id="edge1" class="edge">
<title>[root] aws_autoscaling_group.ASG (expand)-&gt;[root] aws_launch_template.LT (expand)</title>
<path fill="none" stroke="#000000" d="M967,-647.8314C967,-640.131 967,-630.9743 967,-622.4166"/>
<polygon fill="#000000" stroke="#000000" points="970.5001,-622.4132 967,-612.4133 963.5001,-622.4133 970.5001,-622.4132"/>
</g>
<!-- [root] aws_lb_target_group.TG&#45;ALB (expand) -->
<g id="node8" class="node">
<title>[root] aws_lb_target_group.TG-ALB (expand)</title>
<polygon fill="none" stroke="#000000" points="843.5036,-396 654.4964,-396 654.4964,-360 843.5036,-360 843.5036,-396"/>
<text text-anchor="middle" x="749" y="-373.8" font-family="Times,serif" font-size="14.00" fill="#000000">aws_lb_target_group.TG-ALB</text>
</g>
<!-- [root] aws_autoscaling_group.ASG (expand)&#45;&gt;[root] aws_lb_target_group.TG&#45;ALB (expand) -->
<g id="edge2" class="edge">
<title>[root] aws_autoscaling_group.ASG (expand)-&gt;[root] aws_lb_target_group.TG-ALB (expand)</title>
<path fill="none" stroke="#000000" d="M921.7847,-647.8475C905.8908,-639.2725 889.4146,-627.4614 879,-612 833.69,-544.7335 896.1508,-497.9893 849,-432 839.6845,-418.9626 826.2158,-408.7627 812.1665,-400.9119"/>
<polygon fill="#000000" stroke="#000000" points="813.3748,-397.5953 802.888,-396.0859 810.1446,-403.8055 813.3748,-397.5953"/>
</g>
<!-- [root] aws_db_instance.RDS (expand) -->
<g id="node2" class="node">
<title>[root] aws_db_instance.RDS (expand)</title>
<polygon fill="none" stroke="#000000" points="1364.3617,-468 1221.6383,-468 1221.6383,-432 1364.3617,-432 1364.3617,-468"/>
<text text-anchor="middle" x="1293" y="-445.8" font-family="Times,serif" font-size="14.00" fill="#000000">aws_db_instance.RDS</text>
</g>
<!-- [root] aws_db_subnet_group.db&#45;sub&#45;grp (expand) -->
<g id="node3" class="node">
<title>[root] aws_db_subnet_group.db-sub-grp (expand)</title>
<polygon fill="none" stroke="#000000" points="1396.4026,-396 1189.5974,-396 1189.5974,-360 1396.4026,-360 1396.4026,-396"/>
<text text-anchor="middle" x="1293" y="-373.8" font-family="Times,serif" font-size="14.00" fill="#000000">aws_db_subnet_group.db-sub-grp</text>
</g>
<!-- [root] aws_db_instance.RDS (expand)&#45;&gt;[root] aws_db_subnet_group.db&#45;sub&#45;grp (expand) -->
<g id="edge3" class="edge">
<title>[root] aws_db_instance.RDS (expand)-&gt;[root] aws_db_subnet_group.db-sub-grp (expand)</title>
<path fill="none" stroke="#000000" d="M1293,-431.8314C1293,-424.131 1293,-414.9743 1293,-406.4166"/>
<polygon fill="#000000" stroke="#000000" points="1296.5001,-406.4132 1293,-396.4133 1289.5001,-406.4133 1296.5001,-406.4132"/>
</g>
<!-- [root] aws_security_group.RDS&#45;sec&#45;grp (expand) -->
<g id="node13" class="node">
<title>[root] aws_security_group.RDS-sec-grp (expand)</title>
<polygon fill="none" stroke="#000000" points="1066.8237,-396 861.1763,-396 861.1763,-360 1066.8237,-360 1066.8237,-396"/>
<text text-anchor="middle" x="964" y="-373.8" font-family="Times,serif" font-size="14.00" fill="#000000">aws_security_group.RDS-sec-grp</text>
</g>
<!-- [root] aws_db_instance.RDS (expand)&#45;&gt;[root] aws_security_group.RDS&#45;sec&#45;grp (expand) -->
<g id="edge4" class="edge">
<title>[root] aws_db_instance.RDS (expand)-&gt;[root] aws_security_group.RDS-sec-grp (expand)</title>
<path fill="none" stroke="#000000" d="M1221.6119,-434.3771C1173.1422,-423.7697 1108.5913,-409.6431 1056.232,-398.1845"/>
<polygon fill="#000000" stroke="#000000" points="1056.785,-394.7228 1046.2679,-396.0039 1055.2885,-401.5609 1056.785,-394.7228"/>
</g>
<!-- [root] aws_subnet.subnet1a (expand) -->
<g id="node15" class="node">
<title>[root] aws_subnet.subnet1a (expand)</title>
<polygon fill="none" stroke="#000000" points="1436.0807,-324 1301.9193,-324 1301.9193,-288 1436.0807,-288 1436.0807,-324"/>
<text text-anchor="middle" x="1369" y="-301.8" font-family="Times,serif" font-size="14.00" fill="#000000">aws_subnet.subnet1a</text>
</g>
<!-- [root] aws_db_subnet_group.db&#45;sub&#45;grp (expand)&#45;&gt;[root] aws_subnet.subnet1a (expand) -->
<g id="edge5" class="edge">
<title>[root] aws_db_subnet_group.db-sub-grp (expand)-&gt;[root] aws_subnet.subnet1a (expand)</title>
<path fill="none" stroke="#000000" d="M1312.178,-359.8314C1321.3588,-351.1337 1332.5006,-340.5783 1342.4776,-331.1265"/>
<polygon fill="#000000" stroke="#000000" points="1344.9757,-333.5811 1349.8281,-324.1628 1340.1615,-328.4995 1344.9757,-333.5811"/>
</g>
<!-- [root] aws_subnet.subnet1b (expand) -->
<g id="node16" class="node">
<title>[root] aws_subnet.subnet1b (expand)</title>
<polygon fill="none" stroke="#000000" points="1276.8659,-324 1141.1341,-324 1141.1341,-288 1276.8659,-288 1276.8659,-324"/>
<text text-anchor="middle" x="1209" y="-301.8" font-family="Times,serif" font-size="14.00" fill="#000000">aws_subnet.subnet1b</text>
</g>
<!-- [root] aws_db_subnet_group.db&#45;sub&#45;grp (expand)&#45;&gt;[root] aws_subnet.subnet1b (expand) -->
<g id="edge6" class="edge">
<title>[root] aws_db_subnet_group.db-sub-grp (expand)-&gt;[root] aws_subnet.subnet1b (expand)</title>
<path fill="none" stroke="#000000" d="M1271.8033,-359.8314C1261.5566,-351.0485 1249.0997,-340.3712 1237.9903,-330.8489"/>
<polygon fill="#000000" stroke="#000000" points="1240.0603,-328.0134 1230.19,-324.1628 1235.5048,-333.3282 1240.0603,-328.0134"/>
</g>
<!-- [root] aws_internet_gateway.igw (expand) -->
<g id="node4" class="node">
<title>[root] aws_internet_gateway.igw (expand)</title>
<polygon fill="none" stroke="#000000" points="1718.6659,-252 1553.3341,-252 1553.3341,-216 1718.6659,-216 1718.6659,-252"/>
<text text-anchor="middle" x="1636" y="-229.8" font-family="Times,serif" font-size="14.00" fill="#000000">aws_internet_gateway.igw</text>
</g>
<!-- [root] aws_vpc.phonebook&#45;vpc (expand) -->
<g id="node17" class="node">
<title>[root] aws_vpc.phonebook-vpc (expand)</title>
<polygon fill="none" stroke="#000000" points="1081.5708,-180 926.4292,-180 926.4292,-144 1081.5708,-144 1081.5708,-180"/>
<text text-anchor="middle" x="1004" y="-157.8" font-family="Times,serif" font-size="14.00" fill="#000000">aws_vpc.phonebook-vpc</text>
</g>
<!-- [root] aws_internet_gateway.igw (expand)&#45;&gt;[root] aws_vpc.phonebook&#45;vpc (expand) -->
<g id="edge7" class="edge">
<title>[root] aws_internet_gateway.igw (expand)-&gt;[root] aws_vpc.phonebook-vpc (expand)</title>
<path fill="none" stroke="#000000" d="M1553.3109,-217.4429C1550.171,-216.9346 1547.0592,-216.4512 1544,-216 1385.3041,-192.593 1198.8444,-176.4354 1091.7445,-168.2379"/>
<polygon fill="#000000" stroke="#000000" points="1091.8678,-164.7372 1081.6314,-167.4694 1091.3374,-171.7171 1091.8678,-164.7372"/>
</g>
<!-- [root] data.aws_ami.amazon&#45;linux&#45;2 (expand) -->
<g id="node18" class="node">
<title>[root] data.aws_ami.amazon-linux-2 (expand)</title>
<polygon fill="none" stroke="#000000" points="267.2184,-180 82.7816,-180 82.7816,-144 267.2184,-144 267.2184,-180"/>
<text text-anchor="middle" x="175" y="-157.8" font-family="Times,serif" font-size="14.00" fill="#000000">data.aws_ami.amazon-linux-2</text>
</g>
<!-- [root] aws_launch_template.LT (expand)&#45;&gt;[root] data.aws_ami.amazon&#45;linux&#45;2 (expand) -->
<g id="edge8" class="edge">
<title>[root] aws_launch_template.LT (expand)-&gt;[root] data.aws_ami.amazon-linux-2 (expand)</title>
<path fill="none" stroke="#000000" d="M887.8663,-590.5154C656.9184,-579.3013 0,-539.5342 0,-450 0,-450 0,-450 0,-306 0,-245.81 62.4912,-206.1344 112.7876,-183.9489"/>
<polygon fill="#000000" stroke="#000000" points="114.1958,-187.1534 122.0193,-180.009 111.448,-180.7153 114.1958,-187.1534"/>
</g>
<!-- [root] data.template_file.phonebook (expand) -->
<g id="node19" class="node">
<title>[root] data.template_file.phonebook (expand)</title>
<polygon fill="none" stroke="#000000" points="840.3974,-540 657.6026,-540 657.6026,-504 840.3974,-504 840.3974,-540"/>
<text text-anchor="middle" x="749" y="-517.8" font-family="Times,serif" font-size="14.00" fill="#000000">data.template_file.phonebook</text>
</g>
<!-- [root] aws_launch_template.LT (expand)&#45;&gt;[root] data.template_file.phonebook (expand) -->
<g id="edge9" class="edge">
<title>[root] aws_launch_template.LT (expand)-&gt;[root] data.template_file.phonebook (expand)</title>
<path fill="none" stroke="#000000" d="M912.2708,-575.9243C882.2098,-565.9959 844.755,-553.6255 813.3046,-543.2382"/>
<polygon fill="#000000" stroke="#000000" points="814.3449,-539.8959 803.7517,-540.0831 812.1496,-546.5428 814.3449,-539.8959"/>
</g>
<!-- [root] var.instance&#45;type -->
<g id="node27" class="node">
<title>[root] var.instance-type</title>
<polygon fill="none" stroke="#000000" points="1128.0106,-540 1021.9894,-540 1021.9894,-504 1134.0106,-504 1134.0106,-534 1128.0106,-540"/>
<polyline fill="none" stroke="#000000" points="1128.0106,-540 1128.0106,-534 "/>
<polyline fill="none" stroke="#000000" points="1134.0106,-534 1128.0106,-534 "/>
<text text-anchor="middle" x="1078" y="-517.8" font-family="Times,serif" font-size="14.00" fill="#000000">var.instance-type</text>
</g>
<!-- [root] aws_launch_template.LT (expand)&#45;&gt;[root] var.instance&#45;type -->
<g id="edge10" class="edge">
<title>[root] aws_launch_template.LT (expand)-&gt;[root] var.instance-type</title>
<path fill="none" stroke="#000000" d="M995.01,-575.8314C1009.0761,-566.7074 1026.294,-555.539 1041.3933,-545.7449"/>
<polygon fill="#000000" stroke="#000000" points="1043.514,-548.5412 1049.999,-540.1628 1039.7047,-542.6684 1043.514,-548.5412"/>
</g>
<!-- [root] var.key&#45;name -->
<g id="node28" class="node">
<title>[root] var.key-name</title>
<polygon fill="none" stroke="#000000" points="998.0712,-540 911.9288,-540 911.9288,-504 1004.0712,-504 1004.0712,-534 998.0712,-540"/>
<polyline fill="none" stroke="#000000" points="998.0712,-540 998.0712,-534 "/>
<polyline fill="none" stroke="#000000" points="1004.0712,-534 998.0712,-534 "/>
<text text-anchor="middle" x="958" y="-517.8" font-family="Times,serif" font-size="14.00" fill="#000000">var.key-name</text>
</g>
<!-- [root] aws_launch_template.LT (expand)&#45;&gt;[root] var.key&#45;name -->
<g id="edge11" class="edge">
<title>[root] aws_launch_template.LT (expand)-&gt;[root] var.key-name</title>
<path fill="none" stroke="#000000" d="M964.7289,-575.8314C963.7664,-568.131 962.6218,-558.9743 961.5521,-550.4166"/>
<polygon fill="#000000" stroke="#000000" points="965.0151,-549.9019 960.3017,-540.4133 958.0691,-550.7702 965.0151,-549.9019"/>
</g>
<!-- [root] aws_lb.ALB (expand) -->
<g id="node6" class="node">
<title>[root] aws_lb.ALB (expand)</title>
<polygon fill="none" stroke="#000000" points="1171.6523,-396 1084.3477,-396 1084.3477,-360 1171.6523,-360 1171.6523,-396"/>
<text text-anchor="middle" x="1128" y="-373.8" font-family="Times,serif" font-size="14.00" fill="#000000">aws_lb.ALB</text>
</g>
<!-- [root] aws_security_group.ALB&#45;sec&#45;grp (expand) -->
<g id="node12" class="node">
<title>[root] aws_security_group.ALB-sec-grp (expand)</title>
<polygon fill="none" stroke="#000000" points="1042.0934,-252 835.9066,-252 835.9066,-216 1042.0934,-216 1042.0934,-252"/>
<text text-anchor="middle" x="939" y="-229.8" font-family="Times,serif" font-size="14.00" fill="#000000">aws_security_group.ALB-sec-grp</text>
</g>
<!-- [root] aws_lb.ALB (expand)&#45;&gt;[root] aws_security_group.ALB&#45;sec&#45;grp (expand) -->
<g id="edge12" class="edge">
<title>[root] aws_lb.ALB (expand)-&gt;[root] aws_security_group.ALB-sec-grp (expand)</title>
<path fill="none" stroke="#000000" d="M1115.9192,-359.8151C1102.0997,-340.1042 1077.8833,-308.6999 1051,-288 1034.6125,-275.3818 1014.8031,-264.6446 996.4287,-256.148"/>
<polygon fill="#000000" stroke="#000000" points="997.8185,-252.9355 987.2619,-252.0351 994.9529,-259.3221 997.8185,-252.9355"/>
</g>
<!-- [root] aws_lb.ALB (expand)&#45;&gt;[root] aws_subnet.subnet1a (expand) -->
<g id="edge13" class="edge">
<title>[root] aws_lb.ALB (expand)-&gt;[root] aws_subnet.subnet1a (expand)</title>
<path fill="none" stroke="#000000" d="M1171.6187,-363.0023C1174.7879,-361.9691 1177.9398,-360.9586 1181,-360 1217.7207,-348.4979 1258.7677,-336.5982 1293.1165,-326.9066"/>
<polygon fill="#000000" stroke="#000000" points="1294.4033,-330.1805 1303.0821,-324.1036 1292.5079,-323.442 1294.4033,-330.1805"/>
</g>
<!-- [root] aws_lb.ALB (expand)&#45;&gt;[root] aws_subnet.subnet1b (expand) -->
<g id="edge14" class="edge">
<title>[root] aws_lb.ALB (expand)-&gt;[root] aws_subnet.subnet1b (expand)</title>
<path fill="none" stroke="#000000" d="M1148.4397,-359.8314C1158.3205,-351.0485 1170.3324,-340.3712 1181.045,-330.8489"/>
<polygon fill="#000000" stroke="#000000" points="1183.418,-333.4224 1188.5668,-324.1628 1178.7674,-328.1906 1183.418,-333.4224"/>
</g>
<!-- [root] aws_lb_listener.ALB&#45;listener (expand) -->
<g id="node7" class="node">
<title>[root] aws_lb_listener.ALB-listener (expand)</title>
<polygon fill="none" stroke="#000000" points="1165.7253,-468 984.2747,-468 984.2747,-432 1165.7253,-432 1165.7253,-468"/>
<text text-anchor="middle" x="1075" y="-445.8" font-family="Times,serif" font-size="14.00" fill="#000000">aws_lb_listener.ALB-listener</text>
</g>
<!-- [root] aws_lb_listener.ALB&#45;listener (expand)&#45;&gt;[root] aws_lb.ALB (expand) -->
<g id="edge15" class="edge">
<title>[root] aws_lb_listener.ALB-listener (expand)-&gt;[root] aws_lb.ALB (expand)</title>
<path fill="none" stroke="#000000" d="M1088.3741,-431.8314C1094.4162,-423.6232 1101.6763,-413.7606 1108.3221,-404.7323"/>
<polygon fill="#000000" stroke="#000000" points="1111.3363,-406.5415 1114.4458,-396.4133 1105.6989,-402.3918 1111.3363,-406.5415"/>
</g>
<!-- [root] aws_lb_listener.ALB&#45;listener (expand)&#45;&gt;[root] aws_lb_target_group.TG&#45;ALB (expand) -->
<g id="edge16" class="edge">
<title>[root] aws_lb_listener.ALB-listener (expand)-&gt;[root] aws_lb_target_group.TG-ALB (expand)</title>
<path fill="none" stroke="#000000" d="M993.1572,-431.9243C946.7592,-421.6769 888.5825,-408.828 840.6569,-398.2432"/>
<polygon fill="#000000" stroke="#000000" points="841.1132,-394.7597 830.5936,-396.0207 839.6035,-401.595 841.1132,-394.7597"/>
</g>
<!-- [root] aws_lb_target_group.TG&#45;ALB (expand)&#45;&gt;[root] aws_vpc.phonebook&#45;vpc (expand) -->
<g id="edge17" class="edge">
<title>[root] aws_lb_target_group.TG-ALB (expand)-&gt;[root] aws_vpc.phonebook-vpc (expand)</title>
<path fill="none" stroke="#000000" d="M752.7194,-359.7433C760.492,-326.2649 781.632,-254.9237 827,-216 851.9723,-194.5749 885.2925,-181.6499 916.2844,-173.8529"/>
<polygon fill="#000000" stroke="#000000" points="917.3245,-177.2035 926.2514,-171.4973 915.7144,-170.3912 917.3245,-177.2035"/>
</g>
<!-- [root] aws_route_table.rt (expand) -->
<g id="node9" class="node">
<title>[root] aws_route_table.rt (expand)</title>
<polygon fill="none" stroke="#000000" points="1695.7934,-324 1576.2066,-324 1576.2066,-288 1695.7934,-288 1695.7934,-324"/>
<text text-anchor="middle" x="1636" y="-301.8" font-family="Times,serif" font-size="14.00" fill="#000000">aws_route_table.rt</text>
</g>
<!-- [root] aws_route_table.rt (expand)&#45;&gt;[root] aws_internet_gateway.igw (expand) -->
<g id="edge18" class="edge">
<title>[root] aws_route_table.rt (expand)-&gt;[root] aws_internet_gateway.igw (expand)</title>
<path fill="none" stroke="#000000" d="M1636,-287.8314C1636,-280.131 1636,-270.9743 1636,-262.4166"/>
<polygon fill="#000000" stroke="#000000" points="1639.5001,-262.4132 1636,-252.4133 1632.5001,-262.4133 1639.5001,-262.4132"/>
</g>
<!-- [root] aws_route_table_association.as1a (expand) -->
<g id="node10" class="node">
<title>[root] aws_route_table_association.as1a (expand)</title>
<polygon fill="none" stroke="#000000" points="1844.8209,-396 1639.1791,-396 1639.1791,-360 1844.8209,-360 1844.8209,-396"/>
<text text-anchor="middle" x="1742" y="-373.8" font-family="Times,serif" font-size="14.00" fill="#000000">aws_route_table_association.as1a</text>
</g>
<!-- [root] aws_route_table_association.as1a (expand)&#45;&gt;[root] aws_route_table.rt (expand) -->
<g id="edge19" class="edge">
<title>[root] aws_route_table_association.as1a (expand)-&gt;[root] aws_route_table.rt (expand)</title>
<path fill="none" stroke="#000000" d="M1715.2517,-359.8314C1701.9447,-350.7927 1685.684,-339.7476 1671.3625,-330.0198"/>
<polygon fill="#000000" stroke="#000000" points="1672.9785,-326.8864 1662.7397,-324.1628 1669.0453,-332.677 1672.9785,-326.8864"/>
</g>
<!-- [root] aws_route_table_association.as1a (expand)&#45;&gt;[root] aws_subnet.subnet1a (expand) -->
<g id="edge20" class="edge">
<title>[root] aws_route_table_association.as1a (expand)-&gt;[root] aws_subnet.subnet1a (expand)</title>
<path fill="none" stroke="#000000" d="M1648.3578,-359.9243C1585.9342,-347.8747 1504.8766,-332.2282 1446.1656,-320.8952"/>
<polygon fill="#000000" stroke="#000000" points="1446.6905,-317.432 1436.2084,-318.9732 1445.3638,-324.3052 1446.6905,-317.432"/>
</g>
<!-- [root] aws_route_table_association.as1b (expand) -->
<g id="node11" class="node">
<title>[root] aws_route_table_association.as1b (expand)</title>
<polygon fill="none" stroke="#000000" points="1621.106,-396 1414.894,-396 1414.894,-360 1621.106,-360 1621.106,-396"/>
<text text-anchor="middle" x="1518" y="-373.8" font-family="Times,serif" font-size="14.00" fill="#000000">aws_route_table_association.as1b</text>
</g>
<!-- [root] aws_route_table_association.as1b (expand)&#45;&gt;[root] aws_route_table.rt (expand) -->
<g id="edge21" class="edge">
<title>[root] aws_route_table_association.as1b (expand)-&gt;[root] aws_route_table.rt (expand)</title>
<path fill="none" stroke="#000000" d="M1547.7764,-359.8314C1562.8693,-350.6221 1581.3757,-339.3301 1597.5343,-329.4706"/>
<polygon fill="#000000" stroke="#000000" points="1599.5198,-332.3593 1606.2331,-324.1628 1595.8737,-326.3838 1599.5198,-332.3593"/>
</g>
<!-- [root] aws_route_table_association.as1b (expand)&#45;&gt;[root] aws_subnet.subnet1b (expand) -->
<g id="edge22" class="edge">
<title>[root] aws_route_table_association.as1b (expand)-&gt;[root] aws_subnet.subnet1b (expand)</title>
<path fill="none" stroke="#000000" d="M1440.4251,-359.9243C1393.4424,-348.9769 1333.7178,-335.0605 1286.7106,-324.1073"/>
<polygon fill="#000000" stroke="#000000" points="1287.4153,-320.6778 1276.8819,-321.8171 1285.8267,-327.4952 1287.4153,-320.6778"/>
</g>
<!-- [root] aws_security_group.ALB&#45;sec&#45;grp (expand)&#45;&gt;[root] aws_vpc.phonebook&#45;vpc (expand) -->
<g id="edge23" class="edge">
<title>[root] aws_security_group.ALB-sec-grp (expand)-&gt;[root] aws_vpc.phonebook-vpc (expand)</title>
<path fill="none" stroke="#000000" d="M955.4022,-215.8314C963.0415,-207.3694 972.2683,-197.1489 980.6207,-187.8971"/>
<polygon fill="#000000" stroke="#000000" points="983.2738,-190.1813 987.3769,-180.4133 978.0779,-185.4906 983.2738,-190.1813"/>
</g>
<!-- [root] aws_security_group.ec2&#45;sec&#45;grp (expand) -->
<g id="node14" class="node">
<title>[root] aws_security_group.ec2-sec-grp (expand)</title>
<polygon fill="none" stroke="#000000" points="1041.5274,-324 844.4726,-324 844.4726,-288 1041.5274,-288 1041.5274,-324"/>
<text text-anchor="middle" x="943" y="-301.8" font-family="Times,serif" font-size="14.00" fill="#000000">aws_security_group.ec2-sec-grp</text>
</g>
<!-- [root] aws_security_group.RDS&#45;sec&#45;grp (expand)&#45;&gt;[root] aws_security_group.ec2&#45;sec&#45;grp (expand) -->
<g id="edge24" class="edge">
<title>[root] aws_security_group.RDS-sec-grp (expand)-&gt;[root] aws_security_group.ec2-sec-grp (expand)</title>
<path fill="none" stroke="#000000" d="M958.7008,-359.8314C956.4302,-352.0463 953.7254,-342.7729 951.206,-334.1347"/>
<polygon fill="#000000" stroke="#000000" points="954.5306,-333.0332 948.3705,-324.4133 947.8106,-334.9933 954.5306,-333.0332"/>
</g>
<!-- [root] aws_security_group.ec2&#45;sec&#45;grp (expand)&#45;&gt;[root] aws_security_group.ALB&#45;sec&#45;grp (expand) -->
<g id="edge25" class="edge">
<title>[root] aws_security_group.ec2-sec-grp (expand)-&gt;[root] aws_security_group.ALB-sec-grp (expand)</title>
<path fill="none" stroke="#000000" d="M941.9906,-287.8314C941.5628,-280.131 941.0541,-270.9743 940.5787,-262.4166"/>
<polygon fill="#000000" stroke="#000000" points="944.0724,-262.2037 940.023,-252.4133 937.0831,-262.592 944.0724,-262.2037"/>
</g>
<!-- [root] aws_subnet.subnet1a (expand)&#45;&gt;[root] aws_vpc.phonebook&#45;vpc (expand) -->
<g id="edge26" class="edge">
<title>[root] aws_subnet.subnet1a (expand)-&gt;[root] aws_vpc.phonebook-vpc (expand)</title>
<path fill="none" stroke="#000000" d="M1356.9276,-287.7739C1340.9343,-264.188 1313.0012,-225.0382 1298,-216 1263.9837,-195.5051 1165.556,-180.2148 1091.893,-171.2315"/>
<polygon fill="#000000" stroke="#000000" points="1092.0181,-167.7216 1081.6725,-170.0059 1091.1846,-174.6718 1092.0181,-167.7216"/>
</g>
<!-- [root] var.az1 -->
<g id="node22" class="node">
<title>[root] var.az1</title>
<polygon fill="none" stroke="#000000" points="1395.3047,-252 1344.6953,-252 1344.6953,-216 1401.3047,-216 1401.3047,-246 1395.3047,-252"/>
<polyline fill="none" stroke="#000000" points="1395.3047,-252 1395.3047,-246 "/>
<polyline fill="none" stroke="#000000" points="1401.3047,-246 1395.3047,-246 "/>
<text text-anchor="middle" x="1373" y="-229.8" font-family="Times,serif" font-size="14.00" fill="#000000">var.az1</text>
</g>
<!-- [root] aws_subnet.subnet1a (expand)&#45;&gt;[root] var.az1 -->
<g id="edge27" class="edge">
<title>[root] aws_subnet.subnet1a (expand)-&gt;[root] var.az1</title>
<path fill="none" stroke="#000000" d="M1370.0094,-287.8314C1370.4372,-280.131 1370.9459,-270.9743 1371.4213,-262.4166"/>
<polygon fill="#000000" stroke="#000000" points="1374.9169,-262.592 1371.977,-252.4133 1367.9276,-262.2037 1374.9169,-262.592"/>
</g>
<!-- [root] var.subnet1a_cidr -->
<g id="node30" class="node">
<title>[root] var.subnet1a_cidr</title>
<polygon fill="none" stroke="#000000" points="1528.9054,-252 1419.0946,-252 1419.0946,-216 1534.9054,-216 1534.9054,-246 1528.9054,-252"/>
<polyline fill="none" stroke="#000000" points="1528.9054,-252 1528.9054,-246 "/>
<polyline fill="none" stroke="#000000" points="1534.9054,-246 1528.9054,-246 "/>
<text text-anchor="middle" x="1477" y="-229.8" font-family="Times,serif" font-size="14.00" fill="#000000">var.subnet1a_cidr</text>
</g>
<!-- [root] aws_subnet.subnet1a (expand)&#45;&gt;[root] var.subnet1a_cidr -->
<g id="edge28" class="edge">
<title>[root] aws_subnet.subnet1a (expand)-&gt;[root] var.subnet1a_cidr</title>
<path fill="none" stroke="#000000" d="M1396.253,-287.8314C1409.9389,-278.7074 1426.6915,-267.539 1441.3827,-257.7449"/>
<polygon fill="#000000" stroke="#000000" points="1443.3767,-260.6221 1449.7558,-252.1628 1439.4938,-254.7977 1443.3767,-260.6221"/>
</g>
<!-- [root] aws_subnet.subnet1b (expand)&#45;&gt;[root] aws_vpc.phonebook&#45;vpc (expand) -->
<g id="edge29" class="edge">
<title>[root] aws_subnet.subnet1b (expand)-&gt;[root] aws_vpc.phonebook-vpc (expand)</title>
<path fill="none" stroke="#000000" d="M1157.301,-287.9234C1135.1949,-278.915 1109.7553,-266.7675 1089,-252 1075.2933,-242.2476 1046.5659,-210.7688 1026.3134,-187.7816"/>
<polygon fill="#000000" stroke="#000000" points="1028.7648,-185.2684 1019.5418,-180.0544 1023.5003,-189.8819 1028.7648,-185.2684"/>
</g>
<!-- [root] var.az2 -->
<g id="node23" class="node">
<title>[root] var.az2</title>
<polygon fill="none" stroke="#000000" points="1148.3047,-252 1097.6953,-252 1097.6953,-216 1154.3047,-216 1154.3047,-246 1148.3047,-252"/>
<polyline fill="none" stroke="#000000" points="1148.3047,-252 1148.3047,-246 "/>
<polyline fill="none" stroke="#000000" points="1154.3047,-246 1148.3047,-246 "/>
<text text-anchor="middle" x="1126" y="-229.8" font-family="Times,serif" font-size="14.00" fill="#000000">var.az2</text>
</g>
<!-- [root] aws_subnet.subnet1b (expand)&#45;&gt;[root] var.az2 -->
<g id="edge30" class="edge">
<title>[root] aws_subnet.subnet1b (expand)-&gt;[root] var.az2</title>
<path fill="none" stroke="#000000" d="M1188.0556,-287.8314C1177.9309,-279.0485 1165.6223,-268.3712 1154.6452,-258.8489"/>
<polygon fill="#000000" stroke="#000000" points="1156.7851,-256.0718 1146.9377,-252.1628 1152.1981,-261.3595 1156.7851,-256.0718"/>
</g>
<!-- [root] var.subnet1b_cidr -->
<g id="node31" class="node">
<title>[root] var.subnet1b_cidr</title>
<polygon fill="none" stroke="#000000" points="1283.1912,-252 1172.8088,-252 1172.8088,-216 1289.1912,-216 1289.1912,-246 1283.1912,-252"/>
<polyline fill="none" stroke="#000000" points="1283.1912,-252 1283.1912,-246 "/>
<polyline fill="none" stroke="#000000" points="1289.1912,-246 1283.1912,-246 "/>
<text text-anchor="middle" x="1231" y="-229.8" font-family="Times,serif" font-size="14.00" fill="#000000">var.subnet1b_cidr</text>
</g>
<!-- [root] aws_subnet.subnet1b (expand)&#45;&gt;[root] var.subnet1b_cidr -->
<g id="edge31" class="edge">
<title>[root] aws_subnet.subnet1b (expand)-&gt;[root] var.subnet1b_cidr</title>
<path fill="none" stroke="#000000" d="M1214.5515,-287.8314C1216.9303,-280.0463 1219.7638,-270.7729 1222.4033,-262.1347"/>
<polygon fill="#000000" stroke="#000000" points="1225.7987,-262.9996 1225.3737,-252.4133 1219.1042,-260.954 1225.7987,-262.9996"/>
</g>
<!-- [root] provider[&quot;registry.terraform.io/hashicorp/aws&quot;] -->
<g id="node20" class="node">
<title>[root] provider["registry.terraform.io/hashicorp/aws"]</title>
<polygon fill="none" stroke="#000000" points="393,-108 118.0095,-90 393,-72 667.9905,-90 393,-108"/>
<text text-anchor="middle" x="393" y="-85.8" font-family="Times,serif" font-size="14.00" fill="#000000">provider["registry.terraform.io/hashicorp/aws"]</text>
</g>
<!-- [root] aws_vpc.phonebook&#45;vpc (expand)&#45;&gt;[root] provider[&quot;registry.terraform.io/hashicorp/aws&quot;] -->
<g id="edge32" class="edge">
<title>[root] aws_vpc.phonebook-vpc (expand)-&gt;[root] provider["registry.terraform.io/hashicorp/aws"]</title>
<path fill="none" stroke="#000000" d="M926.3064,-152.8446C818.6062,-140.1533 623.4555,-117.1568 501.4478,-102.7794"/>
<polygon fill="#000000" stroke="#000000" points="501.6759,-99.2822 491.335,-101.5878 500.8567,-106.2341 501.6759,-99.2822"/>
</g>
<!-- [root] var.environment -->
<g id="node24" class="node">
<title>[root] var.environment</title>
<polygon fill="none" stroke="#000000" points="985.1369,-108 882.8631,-108 882.8631,-72 991.1369,-72 991.1369,-102 985.1369,-108"/>
<polyline fill="none" stroke="#000000" points="985.1369,-108 985.1369,-102 "/>
<polyline fill="none" stroke="#000000" points="991.1369,-102 985.1369,-102 "/>
<text text-anchor="middle" x="937" y="-85.8" font-family="Times,serif" font-size="14.00" fill="#000000">var.environment</text>
</g>
<!-- [root] aws_vpc.phonebook&#45;vpc (expand)&#45;&gt;[root] var.environment -->
<g id="edge33" class="edge">
<title>[root] aws_vpc.phonebook-vpc (expand)-&gt;[root] var.environment</title>
<path fill="none" stroke="#000000" d="M987.0931,-143.8314C979.2187,-135.3694 969.708,-125.1489 961.0987,-115.8971"/>
<polygon fill="#000000" stroke="#000000" points="963.5092,-113.3497 954.1346,-108.4133 958.3847,-118.1183 963.5092,-113.3497"/>
</g>
<!-- [root] var.vpc_cidr_block -->
<g id="node32" class="node">
<title>[root] var.vpc_cidr_block</title>
<polygon fill="none" stroke="#000000" points="1127.4617,-108 1008.5383,-108 1008.5383,-72 1133.4617,-72 1133.4617,-102 1127.4617,-108"/>
<polyline fill="none" stroke="#000000" points="1127.4617,-108 1127.4617,-102 "/>
<polyline fill="none" stroke="#000000" points="1133.4617,-102 1127.4617,-102 "/>
<text text-anchor="middle" x="1071" y="-85.8" font-family="Times,serif" font-size="14.00" fill="#000000">var.vpc_cidr_block</text>
</g>
<!-- [root] aws_vpc.phonebook&#45;vpc (expand)&#45;&gt;[root] var.vpc_cidr_block -->
<g id="edge34" class="edge">
<title>[root] aws_vpc.phonebook-vpc (expand)-&gt;[root] var.vpc_cidr_block</title>
<path fill="none" stroke="#000000" d="M1020.9069,-143.8314C1028.7813,-135.3694 1038.292,-125.1489 1046.9013,-115.8971"/>
<polygon fill="#000000" stroke="#000000" points="1049.6153,-118.1183 1053.8654,-108.4133 1044.4908,-113.3497 1049.6153,-118.1183"/>
</g>
<!-- [root] data.aws_ami.amazon&#45;linux&#45;2 (expand)&#45;&gt;[root] provider[&quot;registry.terraform.io/hashicorp/aws&quot;] -->
<g id="edge35" class="edge">
<title>[root] data.aws_ami.amazon-linux-2 (expand)-&gt;[root] provider["registry.terraform.io/hashicorp/aws"]</title>
<path fill="none" stroke="#000000" d="M229.7292,-143.9243C262.7896,-133.0053 304.7929,-119.1326 337.9168,-108.1926"/>
<polygon fill="#000000" stroke="#000000" points="339.0515,-111.5039 347.4494,-105.0442 336.8562,-104.857 339.0515,-111.5039"/>
</g>
<!-- [root] data.template_file.phonebook (expand)&#45;&gt;[root] aws_db_instance.RDS (expand) -->
<g id="edge36" class="edge">
<title>[root] data.template_file.phonebook (expand)-&gt;[root] aws_db_instance.RDS (expand)</title>
<path fill="none" stroke="#000000" d="M840.4985,-511.0801C926.825,-500.6167 1059.8191,-484.0826 1175,-468 1186.7853,-466.3544 1199.2204,-464.5415 1211.421,-462.719"/>
<polygon fill="#000000" stroke="#000000" points="1212.2264,-466.1373 1221.5948,-461.1893 1211.1856,-459.2151 1212.2264,-466.1373"/>
</g>
<!-- [root] provider[&quot;registry.terraform.io/hashicorp/template&quot;] -->
<g id="node21" class="node">
<title>[root] provider["registry.terraform.io/hashicorp/template"]</title>
<polygon fill="none" stroke="#000000" points="434,-468 133.4246,-450 434,-432 734.5754,-450 434,-468"/>
<text text-anchor="middle" x="434" y="-445.8" font-family="Times,serif" font-size="14.00" fill="#000000">provider["registry.terraform.io/hashicorp/template"]</text>
</g>
<!-- [root] data.template_file.phonebook (expand)&#45;&gt;[root] provider[&quot;registry.terraform.io/hashicorp/template&quot;] -->
<g id="edge37" class="edge">
<title>[root] data.template_file.phonebook (expand)-&gt;[root] provider["registry.terraform.io/hashicorp/template"]</title>
<path fill="none" stroke="#000000" d="M669.9188,-503.9243C619.7071,-492.4473 555.2192,-477.7072 506.3598,-466.5394"/>
<polygon fill="#000000" stroke="#000000" points="507.0223,-463.1006 496.4938,-464.2843 505.4625,-469.9246 507.0223,-463.1006"/>
</g>
<!-- [root] var.git&#45;name -->
<g id="node25" class="node">
<title>[root] var.git-name</title>
<polygon fill="none" stroke="#000000" points="833.6369,-468 752.3631,-468 752.3631,-432 839.6369,-432 839.6369,-462 833.6369,-468"/>
<polyline fill="none" stroke="#000000" points="833.6369,-468 833.6369,-462 "/>
<polyline fill="none" stroke="#000000" points="839.6369,-462 833.6369,-462 "/>
<text text-anchor="middle" x="796" y="-445.8" font-family="Times,serif" font-size="14.00" fill="#000000">var.git-name</text>
</g>
<!-- [root] data.template_file.phonebook (expand)&#45;&gt;[root] var.git&#45;name -->
<g id="edge38" class="edge">
<title>[root] data.template_file.phonebook (expand)-&gt;[root] var.git-name</title>
<path fill="none" stroke="#000000" d="M760.8601,-503.8314C766.1629,-495.7079 772.5237,-485.9637 778.3673,-477.0118"/>
<polygon fill="#000000" stroke="#000000" points="781.4448,-478.7003 783.9802,-468.4133 775.5831,-474.8739 781.4448,-478.7003"/>
</g>
<!-- [root] var.git&#45;token -->
<g id="node26" class="node">
<title>[root] var.git-token</title>
<polygon fill="none" stroke="#000000" points="109.9222,-468 28.0778,-468 28.0778,-432 115.9222,-432 115.9222,-462 109.9222,-468"/>
<polyline fill="none" stroke="#000000" points="109.9222,-468 109.9222,-462 "/>
<polyline fill="none" stroke="#000000" points="115.9222,-462 109.9222,-462 "/>
<text text-anchor="middle" x="72" y="-445.8" font-family="Times,serif" font-size="14.00" fill="#000000">var.git-token</text>
</g>
<!-- [root] data.template_file.phonebook (expand)&#45;&gt;[root] var.git&#45;token -->
<g id="edge39" class="edge">
<title>[root] data.template_file.phonebook (expand)-&gt;[root] var.git-token</title>
<path fill="none" stroke="#000000" d="M657.7812,-516.8959C513.9849,-508.3961 239.9919,-490.2471 125.9268,-468.0927"/>
<polygon fill="#000000" stroke="#000000" points="126.5419,-464.6461 116.0439,-466.076 125.1422,-471.5048 126.5419,-464.6461"/>
</g>
<!-- [root] var.region -->
<g id="node29" class="node">
<title>[root] var.region</title>
<polygon fill="none" stroke="#000000" points="423.6411,-36 356.3589,-36 356.3589,0 429.6411,0 429.6411,-30 423.6411,-36"/>
<polyline fill="none" stroke="#000000" points="423.6411,-36 423.6411,-30 "/>
<polyline fill="none" stroke="#000000" points="429.6411,-30 423.6411,-30 "/>
<text text-anchor="middle" x="393" y="-13.8" font-family="Times,serif" font-size="14.00" fill="#000000">var.region</text>
</g>
<!-- [root] provider[&quot;registry.terraform.io/hashicorp/aws&quot;]&#45;&gt;[root] var.region -->
<g id="edge46" class="edge">
<title>[root] provider["registry.terraform.io/hashicorp/aws"]-&gt;[root] var.region</title>
<path fill="none" stroke="#000000" d="M393,-71.8314C393,-64.131 393,-54.9743 393,-46.4166"/>
<polygon fill="#000000" stroke="#000000" points="396.5001,-46.4132 393,-36.4133 389.5001,-46.4133 396.5001,-46.4132"/>
</g>
<!-- [root] output.RDS&#45;endpoint (expand) -->
<g id="node33" class="node">
<title>[root] output.RDS-endpoint (expand)</title>
<ellipse fill="none" stroke="#000000" cx="1675" cy="-666" rx="155.1069" ry="18"/>
<text text-anchor="middle" x="1675" y="-661.8" font-family="Times,serif" font-size="14.00" fill="#000000">[root] output.RDS-endpoint (expand)</text>
</g>
<!-- [root] output.RDS&#45;endpoint (expand)&#45;&gt;[root] aws_db_instance.RDS (expand) -->
<g id="edge40" class="edge">
<title>[root] output.RDS-endpoint (expand)-&gt;[root] aws_db_instance.RDS (expand)</title>
<path fill="none" stroke="#000000" d="M1649.2742,-648.146C1603.5561,-616.8222 1504.6176,-550.8492 1416,-504 1394.1788,-492.4638 1369.377,-481.2366 1347.7889,-472.0346"/>
<polygon fill="#000000" stroke="#000000" points="1349.0103,-468.7511 1338.4362,-468.088 1346.2888,-475.2005 1349.0103,-468.7511"/>
</g>
<!-- [root] output.alb_dns_name (expand) -->
<g id="node34" class="node">
<title>[root] output.alb_dns_name (expand)</title>
<ellipse fill="none" stroke="#000000" cx="1219" cy="-594" rx="155.0895" ry="18"/>
<text text-anchor="middle" x="1219" y="-589.8" font-family="Times,serif" font-size="14.00" fill="#000000">[root] output.alb_dns_name (expand)</text>
</g>
<!-- [root] output.alb_dns_name (expand)&#45;&gt;[root] aws_lb.ALB (expand) -->
<g id="edge41" class="edge">
<title>[root] output.alb_dns_name (expand)-&gt;[root] aws_lb.ALB (expand)</title>
<path fill="none" stroke="#000000" d="M1216.7662,-575.763C1212.3844,-544.6964 1200.7512,-480.1968 1175,-432 1169.6738,-422.0313 1162.2009,-412.3309 1154.7786,-403.9661"/>
<polygon fill="#000000" stroke="#000000" points="1157.1168,-401.3404 1147.7495,-396.3903 1151.9854,-406.1015 1157.1168,-401.3404"/>
</g>
<!-- [root] provider[&quot;registry.terraform.io/hashicorp/aws&quot;] (close) -->
<g id="node35" class="node">
<title>[root] provider["registry.terraform.io/hashicorp/aws"] (close)</title>
<ellipse fill="none" stroke="#000000" cx="1402" cy="-738" rx="247.2168" ry="18"/>
<text text-anchor="middle" x="1402" y="-733.8" font-family="Times,serif" font-size="14.00" fill="#000000">[root] provider["registry.terraform.io/hashicorp/aws"] (close)</text>
</g>
<!-- [root] provider[&quot;registry.terraform.io/hashicorp/aws&quot;] (close)&#45;&gt;[root] aws_autoscaling_group.ASG (expand) -->
<g id="edge42" class="edge">
<title>[root] provider["registry.terraform.io/hashicorp/aws"] (close)-&gt;[root] aws_autoscaling_group.ASG (expand)</title>
<path fill="none" stroke="#000000" d="M1302.2022,-721.4817C1231.6748,-709.8082 1137.519,-694.2238 1066.9563,-682.5445"/>
<polygon fill="#000000" stroke="#000000" points="1067.1595,-679.0306 1056.7222,-680.8506 1066.0164,-685.9366 1067.1595,-679.0306"/>
</g>
<!-- [root] provider[&quot;registry.terraform.io/hashicorp/aws&quot;] (close)&#45;&gt;[root] aws_lb_listener.ALB&#45;listener (expand) -->
<g id="edge43" class="edge">
<title>[root] provider["registry.terraform.io/hashicorp/aws"] (close)-&gt;[root] aws_lb_listener.ALB-listener (expand)</title>
<path fill="none" stroke="#000000" d="M1405.352,-719.7923C1410.2469,-687.3283 1415.5448,-618.8449 1383,-576 1333.7875,-511.2122 1245.516,-479.5751 1176.0497,-464.2218"/>
<polygon fill="#000000" stroke="#000000" points="1176.4532,-460.7294 1165.9439,-462.0727 1174.9971,-467.5763 1176.4532,-460.7294"/>
</g>
<!-- [root] provider[&quot;registry.terraform.io/hashicorp/aws&quot;] (close)&#45;&gt;[root] aws_route_table_association.as1a (expand) -->
<g id="edge44" class="edge">
<title>[root] provider["registry.terraform.io/hashicorp/aws"] (close)-&gt;[root] aws_route_table_association.as1a (expand)</title>
<path fill="none" stroke="#000000" d="M1419.3281,-719.6526C1475.4879,-660.1893 1652.6031,-472.6555 1717.6936,-403.7362"/>
<polygon fill="#000000" stroke="#000000" points="1720.3851,-405.9838 1724.7068,-396.3104 1715.296,-401.1774 1720.3851,-405.9838"/>
</g>
<!-- [root] provider[&quot;registry.terraform.io/hashicorp/aws&quot;] (close)&#45;&gt;[root] aws_route_table_association.as1b (expand) -->
<g id="edge45" class="edge">
<title>[root] provider["registry.terraform.io/hashicorp/aws"] (close)-&gt;[root] aws_route_table_association.as1b (expand)</title>
<path fill="none" stroke="#000000" d="M1411.7554,-719.9518C1425.2583,-693.2403 1448,-641.2402 1448,-594 1448,-594 1448,-594 1448,-522 1448,-477.1595 1475.7942,-431.6528 1496.3548,-404.1238"/>
<polygon fill="#000000" stroke="#000000" points="1499.1435,-406.239 1502.4647,-396.1781 1493.5944,-401.9719 1499.1435,-406.239"/>
</g>
<!-- [root] provider[&quot;registry.terraform.io/hashicorp/template&quot;] (close) -->
<g id="node36" class="node">
<title>[root] provider["registry.terraform.io/hashicorp/template"] (close)</title>
<ellipse fill="none" stroke="#000000" cx="808" cy="-738" rx="265.693" ry="18"/>
<text text-anchor="middle" x="808" y="-733.8" font-family="Times,serif" font-size="14.00" fill="#000000">[root] provider["registry.terraform.io/hashicorp/template"] (close)</text>
</g>
<!-- [root] provider[&quot;registry.terraform.io/hashicorp/template&quot;] (close)&#45;&gt;[root] data.template_file.phonebook (expand) -->
<g id="edge47" class="edge">
<title>[root] provider["registry.terraform.io/hashicorp/template"] (close)-&gt;[root] data.template_file.phonebook (expand)</title>
<path fill="none" stroke="#000000" d="M803.0712,-719.9555C792.7679,-682.235 768.8903,-594.8188 756.6044,-549.8399"/>
<polygon fill="#000000" stroke="#000000" points="759.9676,-548.8694 753.9563,-540.1451 753.215,-550.7139 759.9676,-548.8694"/>
</g>
<!-- [root] root -->
<g id="node37" class="node">
<title>[root] root</title>
<ellipse fill="none" stroke="#000000" cx="1264" cy="-810" rx="50.9823" ry="18"/>
<text text-anchor="middle" x="1264" y="-805.8" font-family="Times,serif" font-size="14.00" fill="#000000">[root] root</text>
</g>
<!-- [root] root&#45;&gt;[root] output.RDS&#45;endpoint (expand) -->
<g id="edge48" class="edge">
<title>[root] root-&gt;[root] output.RDS-endpoint (expand)</title>
<path fill="none" stroke="#000000" d="M1313.9744,-806.3921C1414.4385,-798.6789 1633.4194,-779.37 1658,-756 1674.4111,-740.3972 1677.8245,-714.3035 1677.6226,-694.2188"/>
<polygon fill="#000000" stroke="#000000" points="1681.1136,-693.9203 1677.2178,-684.0678 1674.1191,-694.1993 1681.1136,-693.9203"/>
</g>
<!-- [root] root&#45;&gt;[root] output.alb_dns_name (expand) -->
<g id="edge49" class="edge">
<title>[root] root-&gt;[root] output.alb_dns_name (expand)</title>
<path fill="none" stroke="#000000" d="M1218.4797,-801.7121C1192.4718,-794.3927 1161.9465,-780.8345 1146,-756 1116.99,-710.8209 1161.1685,-652.1934 1192.4271,-619.2867"/>
<polygon fill="#000000" stroke="#000000" points="1195.1691,-621.4884 1199.6516,-611.8885 1190.1609,-616.5978 1195.1691,-621.4884"/>
</g>
<!-- [root] root&#45;&gt;[root] provider[&quot;registry.terraform.io/hashicorp/aws&quot;] (close) -->
<g id="edge50" class="edge">
<title>[root] root-&gt;[root] provider["registry.terraform.io/hashicorp/aws"] (close)</title>
<path fill="none" stroke="#000000" d="M1292.5937,-795.0816C1311.6595,-785.1342 1337.0803,-771.8712 1358.6192,-760.6334"/>
<polygon fill="#000000" stroke="#000000" points="1360.3359,-763.6856 1367.5827,-755.9568 1357.0979,-757.4795 1360.3359,-763.6856"/>
</g>
<!-- [root] root&#45;&gt;[root] provider[&quot;registry.terraform.io/hashicorp/template&quot;] (close) -->
<g id="edge51" class="edge">
<title>[root] root-&gt;[root] provider["registry.terraform.io/hashicorp/template"] (close)</title>
<path fill="none" stroke="#000000" d="M1217.343,-802.6331C1148.6138,-791.7811 1018.0164,-771.1605 922.7619,-756.1203"/>
<polygon fill="#000000" stroke="#000000" points="923.2096,-752.6477 912.786,-754.5452 922.1178,-759.562 923.2096,-752.6477"/>
</g>
</g>
</svg>